# xmcd
#
# Track frame offsets:
#	150
#	55882
#	64006
#	64956
#	113318
#	144721
#	155251
#	166917
#	189069
#	209987
#	219075
#	248842
#
# Disc length: 3396 seconds
#
# Revision: 1
# Processed by: cddbd v1.5.2PL0 Copyright (c) Steve Scherf et al.
# Submitted via: audiograbber 1.83.01
#
DISCID=a60d420c
DTITLE=Grateful Dead - 68-11-01 Silver Dollar Fair, Chico CA
DYEAR=1900
DGENRE=
TTITLE0=Dark Star
TTITLE1=Cryptical Envelopment
TTITLE2=Drums
TTITLE3=The Other One
TTITLE4=Cryptical Envelopment
TTITLE5=New Potato Caboose
TTITLE6=Alligator
TTITLE7=Drums
TTITLE8=Alligator
TTITLE9=Caution
TTITLE10=Feedback
TTITLE11=We Bid You Goodnight
EXTD=
EXTT0=
EXTT1=
EXTT2=
EXTT3=
EXTT4=
EXTT5=
EXTT6=
EXTT7=
EXTT8=
EXTT9=
EXTT10=
EXTT11=
PLAYORDER=
